<svg width="25" height="24" viewBox="0 0 25 24" fill="none" xmlns="http://www.w3.org/2000/svg">
<path fill-rule="evenodd" clip-rule="evenodd" d="M9.00691 19.3849L9.00691 12.0003C9.00691 12.0003 9.00691 11.0772 9.92999 11.0772H15.4685C16.3915 11.0772 16.3915 12.0003 16.3915 12.0003V19.3849H21.0992C22.0544 19.3849 22.97 19.086 23.6444 18.5534C24.32 18.0218 24.6992 17.3 24.6992 16.547V11.0073C24.6992 10.0576 22.9609 7.27851 22.2992 6.53946C20.7992 4.86401 18.8887 3.74683 16.4887 3.18856C14.0886 2.63027 11.4992 2.62932 9.09922 3.18892C6.69922 3.74709 4.89922 4.30651 3.09922 6.53946C1.75402 8.20822 0.699219 11.0073 0.699219 11.0073V13.7772V16.547C0.699219 17.3 1.07842 18.0218 1.75402 18.5534C2.42842 19.086 3.34402 19.3849 4.29922 19.3849H9.00691ZM15.4685 19.3849H9.92999L9.92999 12.0003H15.4685L15.4685 19.3849Z" fill="#8D8D8F"/>
<rect width="8.30769" height="0.923077" transform="matrix(1 0 0 -1 0.699219 13.8477)" fill="white"/>
<rect x="16.3906" y="14.7695" width="8.30769" height="0.923077" fill="white"/>
<path d="M16.3906 16.6172H24.6983V17.0787L24.0298 17.5403H16.3906V16.6172Z" fill="white"/>
<rect width="8.30769" height="0.923077" transform="matrix(1 0 0 -1 16.3906 13.8477)" fill="white"/>
<rect x="0.699219" y="14.7695" width="8.30769" height="0.923077" fill="white"/>
<path d="M0.747899 16.6172H9.00691V17.5403H1.29225L0.747899 17.0344L0.699219 16.6172H0.747899Z" fill="white"/>
<path d="M14.5451 3.69171C14.5451 4.20151 13.5119 4.92248 12.2374 4.92248C10.9629 4.92248 9.92969 4.20151 9.92969 3.69171C9.92969 3.18191 10.3912 2.46214 12.2374 2.46094C13.622 2.46094 14.5451 3.18191 14.5451 3.69171Z" fill="white"/>
<rect x="10.8516" width="0.923077" height="3.69231" rx="0.461538" fill="#8D8D8F"/>
</svg>
