<svg width="35" height="35" viewBox="0 0 35 35" fill="none" xmlns="http://www.w3.org/2000/svg">
<rect width="35" height="35" rx="4" fill="white"/>
<path fill-rule="evenodd" clip-rule="evenodd" d="M11.9942 11.7822C12.6924 10.8046 14.096 10.7168 14.8793 11.6694C14.9483 11.7533 15.0183 11.8385 15.0886 11.9241C15.4709 12.3897 15.8619 12.8657 16.1517 13.2026C16.5274 13.6393 16.612 14.2892 16.298 14.8124L15.3411 16.4073C15.4196 16.5358 15.5259 16.6891 15.662 16.8639C15.9047 17.1757 16.2147 17.5218 16.5605 17.8675C17.1427 18.4498 17.7946 18.9996 18.3557 19.3711L19.956 18.411C20.4454 18.1173 21.0675 18.1678 21.5032 18.5365L23.0779 19.8689C23.9804 20.6326 23.9226 22.0418 22.9606 22.729C21.477 23.7887 19.483 24.0407 17.8494 23.0436C16.7232 22.3563 15.3432 21.3859 14.1086 20.1513C12.9919 19.0347 12.1704 17.8782 11.5905 16.906C10.5961 15.2389 10.9433 13.2533 11.9942 11.7822ZM13.8494 12.5162C13.6433 12.2656 13.2863 12.2672 13.0791 12.5572C12.2549 13.7111 12.0775 15.1196 12.7356 16.223C13.2712 17.1209 14.0278 18.1849 15.0514 19.2085C16.1876 20.3447 17.474 21.2525 18.544 21.9055C19.6465 22.5784 21.0608 22.4474 22.1856 21.644C22.4403 21.462 22.4556 21.089 22.2166 20.8868L20.642 19.5543L18.6942 20.723C18.488 20.8467 18.2311 20.8498 18.022 20.731C17.2565 20.2963 16.3617 19.5544 15.6177 18.8103C15.242 18.4347 14.8934 18.0472 14.6098 17.6828C14.3341 17.3286 14.0901 16.9587 13.9589 16.6224C13.8839 16.4302 13.9021 16.214 14.0083 16.0371L15.1547 14.1264C15.1547 14.1264 15.1581 14.1207 15.1569 14.1089C15.1556 14.0962 15.1501 14.0828 15.1409 14.0721C14.8402 13.7225 14.437 13.2315 14.0554 12.7669C13.9858 12.6821 13.9169 12.5982 13.8494 12.5162Z" fill="url(#paint0_linear_4360_15580)"/>
<defs>
<linearGradient id="paint0_linear_4360_15580" x1="9.19069" y1="17.336" x2="25.8321" y2="17.336" gradientUnits="userSpaceOnUse">
<stop stop-color="#1862FF"/>
<stop offset="1" stop-color="#5A9BF8"/>
</linearGradient>
</defs>
</svg>
