<svg width="16" height="20" viewBox="0 0 16 20" fill="none" xmlns="http://www.w3.org/2000/svg">
<path fill-rule="evenodd" clip-rule="evenodd" d="M6.85957 16.0967L15.636 5.93444C16.1201 5.3725 16.1201 4.46277 15.636 3.90084C15.1507 3.34034 14.3651 3.34034 13.8798 3.90084L5.10328 14.0631C4.61922 14.625 4.61922 15.5347 5.10328 16.0967C5.58859 16.6572 6.37426 16.6572 6.85957 16.0967Z" fill="#06BA63"/>
<path fill-rule="evenodd" clip-rule="evenodd" d="M6.3081 15.1786L1.22698 9.63554C0.946017 9.32982 0.491153 9.32982 0.210186 9.63554C-0.070062 9.94205 -0.070062 10.4383 0.210186 10.7448L5.2913 16.2878C5.57227 16.5935 6.02713 16.5935 6.3081 16.2878C6.58834 15.9813 6.58834 15.4851 6.3081 15.1786Z" fill="#06BA63"/>
</svg>
