<svg width="10" height="10" viewBox="0 0 10 10" fill="none" xmlns="http://www.w3.org/2000/svg">
<path d="M2.37731 1.79001C2.21459 1.62729 1.95077 1.62729 1.78805 1.79001C1.62534 1.95273 1.62534 2.21654 1.78805 2.37926L4.41012 5.00133L1.78805 7.6234C1.62534 7.78612 1.62534 8.04994 1.78805 8.21266C1.95077 8.37538 2.21459 8.37538 2.37731 8.21266L4.99938 5.59059L7.62139 8.2126C7.78411 8.37532 8.04792 8.37532 8.21064 8.2126C8.37336 8.04988 8.37336 7.78606 8.21064 7.62334L5.58864 5.00133L8.21064 2.37933C8.37336 2.21661 8.37336 1.95279 8.21064 1.79007C8.04792 1.62735 7.78411 1.62735 7.62139 1.79007L4.99938 4.41208L2.37731 1.79001Z" fill="#8D8D8F"/>
</svg>
