<svg width="25" height="24" viewBox="0 0 25 24" fill="none" xmlns="http://www.w3.org/2000/svg">
<path fill-rule="evenodd" clip-rule="evenodd" d="M7.95581 21.25C7.81481 20.952 7.75881 20.617 7.80081 20.283C7.80081 20.283 8.43181 15.235 8.69081 13.159C8.86281 11.783 10.0328 10.75 11.4198 10.75H15.7148L15.3408 4.397C15.2868 3.472 14.5208 2.75 13.5938 2.75C11.5148 2.75 6.55881 2.75 4.47981 2.75C3.55281 2.75 2.78681 3.472 2.73281 4.397L1.85081 19.397C1.82181 19.878 1.99381 20.35 2.32381 20.701C2.65481 21.051 3.11581 21.25 3.59781 21.25H7.95581ZM10.4718 5.775C10.4328 5.898 10.3808 6.015 10.3178 6.124C10.0148 6.647 9.44881 7 8.80181 7C8.15381 7 7.58881 6.647 7.28581 6.124C7.22181 6.015 7.17081 5.898 7.13181 5.775C7.00781 5.38 6.58581 5.16 6.19081 5.285C5.79681 5.409 5.57681 5.83 5.70081 6.225C5.77281 6.454 5.86981 6.672 5.98781 6.876C6.54981 7.847 7.59981 8.5 8.80181 8.5C10.0028 8.5 11.0538 7.847 11.6158 6.876C11.7338 6.672 11.8308 6.454 11.9028 6.225C12.0268 5.83 11.8068 5.409 11.4118 5.285C11.0168 5.16 10.5958 5.38 10.4718 5.775Z" fill="url(#paint0_linear_2656_10763)"/>
<path fill-rule="evenodd" clip-rule="evenodd" d="M22.391 13.283C22.281 12.407 21.537 11.75 20.654 11.75C18.593 11.75 13.481 11.75 11.42 11.75C10.537 11.75 9.79304 12.407 9.68304 13.283C9.42404 15.359 8.79304 20.407 8.79304 20.407C8.76604 20.62 8.83204 20.835 8.97504 20.996C9.11704 21.158 9.32204 21.25 9.53704 21.25H21.404C21.906 21.25 22.384 21.034 22.716 20.658C23.048 20.282 23.203 19.781 23.141 19.283L22.391 13.283ZM17.553 14.624C17.25 15.147 16.685 15.5 16.037 15.5C15.39 15.5 14.824 15.147 14.521 14.624C14.314 14.266 13.854 14.144 13.496 14.351C13.138 14.558 13.016 15.018 13.223 15.376C13.785 16.347 14.835 17 16.037 17C17.239 17 18.289 16.347 18.851 15.376C19.059 15.018 18.936 14.558 18.578 14.351C18.22 14.144 17.761 14.266 17.553 14.624Z" fill="url(#paint1_linear_2656_10763)"/>
<defs>
<linearGradient id="paint0_linear_2656_10763" x1="-0.124828" y1="12" x2="18.0174" y2="12" gradientUnits="userSpaceOnUse">
<stop stop-color="#013B7D"/>
<stop offset="1" stop-color="#1862FF"/>
</linearGradient>
<linearGradient id="paint1_linear_2656_10763" x1="6.74348" y1="16.5" x2="25.5401" y2="16.5" gradientUnits="userSpaceOnUse">
<stop stop-color="#013B7D"/>
<stop offset="1" stop-color="#1862FF"/>
</linearGradient>
</defs>
</svg>
