<svg width="24" height="24" viewBox="0 0 24 24" fill="none" xmlns="http://www.w3.org/2000/svg">
<path fill-rule="evenodd" clip-rule="evenodd" d="M12 0.75C6.6152 0.75 2.25 5.1152 2.25 10.5C2.25 13.9937 4.0528 16.9326 6.0129 19.1014C7.97915 21.2771 10.1761 22.7594 11.1317 23.3545C11.6677 23.6882 12.3323 23.6882 12.8683 23.3545C13.8239 22.7594 16.0209 21.2771 17.9871 19.1014C19.9472 16.9326 21.75 13.9937 21.75 10.5C21.75 5.1152 17.3848 0.75 12 0.75ZM12 15.75C14.4853 15.75 16.5 13.7353 16.5 11.25C16.5 8.76472 14.4853 6.75 12 6.75C9.51472 6.75 7.5 8.76472 7.5 11.25C7.5 13.7353 9.51472 15.75 12 15.75Z" fill="url(#paint0_linear_2656_9082)"/>
<defs>
<linearGradient id="paint0_linear_2656_9082" x1="-0.523708" y1="12.1774" x2="24.9879" y2="12.1774" gradientUnits="userSpaceOnUse">
<stop stop-color="#013B7D"/>
<stop offset="1" stop-color="#1862FF"/>
</linearGradient>
</defs>
</svg>
