<svg width="24" height="24" viewBox="0 0 24 24" fill="none" xmlns="http://www.w3.org/2000/svg">
<path fill-rule="evenodd" clip-rule="evenodd" d="M11.5 1.07422C7.085 1.07422 3.5 4.65922 3.5 9.07422C3.5 17.4192 10.908 22.8802 10.908 22.8802C11.26 23.1392 11.74 23.1392 12.092 22.8802C12.092 22.8802 19.5 17.4192 19.5 9.07422C19.5 4.65922 15.915 1.07422 11.5 1.07422ZM11.5 5.07422C9.292 5.07422 7.5 6.86722 7.5 9.07422C7.5 11.2822 9.292 13.0742 11.5 13.0742C13.708 13.0742 15.5 11.2822 15.5 9.07422C15.5 6.86722 13.708 5.07422 11.5 5.07422ZM11.5 7.07422C12.604 7.07422 13.5 7.97022 13.5 9.07422C13.5 10.1782 12.604 11.0742 11.5 11.0742C10.396 11.0742 9.5 10.1782 9.5 9.07422C9.5 7.97022 10.396 7.07422 11.5 7.07422Z" fill="white"/>
</svg>
