<svg width="32" height="32" viewBox="0 0 32 32" fill="none" xmlns="http://www.w3.org/2000/svg">
<rect width="32" height="32" rx="16" fill="white"/>
<path d="M13.789 17.1948C13.7164 17.1948 12.1935 17.1953 11.4911 17.1946C11.1295 17.1943 11.0004 17.0644 11.0004 16.7005C11 15.7657 10.9997 14.8309 11.0004 13.8962C11.0007 13.5369 11.1371 13.3998 11.4941 13.3995C12.1965 13.3991 13.7111 13.3993 13.789 13.3993C13.789 13.3353 13.7888 11.9857 13.789 11.3642C13.7895 10.4454 13.9534 9.56589 14.4202 8.76059C14.8981 7.93634 15.5936 7.37173 16.4849 7.04527C17.0558 6.83602 17.6483 6.75256 18.2541 6.7521C19.012 6.75163 19.7699 6.75233 20.528 6.75371C20.8538 6.75418 20.9983 6.89822 20.999 7.2263C21.0004 8.10558 21.0004 8.98486 20.999 9.86391C20.9985 10.1955 20.86 10.3286 20.5269 10.3323C19.9056 10.339 19.2839 10.3349 18.6633 10.3599C18.0365 10.3599 17.7068 10.666 17.7068 11.3147C17.6918 12.001 17.7006 12.6879 17.7006 13.3991C17.7593 13.3991 19.5431 13.3988 20.3768 13.3991C20.7555 13.3991 20.885 13.5292 20.885 13.91C20.885 14.8397 20.8848 15.7696 20.8841 16.6993C20.8838 17.0746 20.7622 17.1943 20.3812 17.1946C19.5475 17.195 17.7706 17.1948 17.693 17.1948V24.7194C17.693 25.1206 17.5667 25.2484 17.1709 25.2484C16.2058 25.2484 15.2405 25.2487 14.2755 25.2484C13.9257 25.2484 13.7893 25.1125 13.7893 24.7627C13.789 22.3121 13.789 17.2808 13.789 17.1948Z" fill="#3D6AD6"/>
</svg>
