<svg width="35" height="35" viewBox="0 0 35 35" fill="none" xmlns="http://www.w3.org/2000/svg">
<rect width="35" height="35" rx="4" fill="white"/>
<path d="M17.75 22.9516C20.7097 22.5825 23 20.0577 23 16.998C23 13.6843 20.3137 10.998 17 10.998C13.6863 10.998 11 13.6843 11 16.998C11 20.0577 13.2903 22.5825 16.25 22.9516V18.498H14.75V16.998H16.25V15.7574C16.25 14.7545 16.3544 14.3908 16.5505 14.0241C16.7466 13.6574 17.0344 13.3697 17.401 13.1736C17.6881 13.0201 18.0441 12.9274 18.6663 12.8877C18.9132 12.8719 19.2328 12.892 19.625 12.948V14.373H19.25C18.562 14.373 18.2782 14.4055 18.1084 14.4963C18.0032 14.5526 17.9296 14.6262 17.8732 14.7315C17.7825 14.9012 17.75 15.0694 17.75 15.7574V16.998H19.625L19.25 18.498H17.75V22.9516ZM17 24.498C12.8579 24.498 9.5 21.1401 9.5 16.998C9.5 12.8559 12.8579 9.49805 17 9.49805C21.1421 9.49805 24.5 12.8559 24.5 16.998C24.5 21.1401 21.1421 24.498 17 24.498Z" fill="#1862FF"/>
</svg>
