<svg width="25" height="24" viewBox="0 0 25 24" fill="none" xmlns="http://www.w3.org/2000/svg">
<path fill-rule="evenodd" clip-rule="evenodd" d="M8.5 22.5491V15.0491C8.5 13.9451 9.395 13.0491 10.5 13.0491H14.5C15.605 13.0491 16.5 13.9451 16.5 15.0491V22.5491H19.5C20.296 22.5491 21.059 22.2331 21.621 21.6701C22.184 21.1081 22.5 20.3451 22.5 19.5491V9.12013C22.5 8.11613 21.999 7.18013 21.164 6.62313C19.511 5.52112 15.97 3.16112 14.164 1.95713C13.156 1.28513 11.844 1.28513 10.836 1.95713C9.03 3.16112 5.489 5.52112 3.836 6.62313C3.001 7.18013 2.5 8.11613 2.5 9.12013V19.5491C2.5 20.3451 2.816 21.1081 3.379 21.6701C3.941 22.2331 4.704 22.5491 5.5 22.5491H8.5ZM14.5 22.5491H10.5V15.0491H14.5V22.5491Z" fill="url(#paint0_linear_2656_4380)"/>
<defs>
<linearGradient id="paint0_linear_2656_4380" x1="-0.344829" y1="12.0011" x2="25.8209" y2="12.0011" gradientUnits="userSpaceOnUse">
<stop stop-color="#013B7D"/>
<stop offset="1" stop-color="#1862FF"/>
</linearGradient>
</defs>
</svg>
