<svg width="35" height="35" viewBox="0 0 35 35" fill="none" xmlns="http://www.w3.org/2000/svg">
<rect width="35" height="35" rx="4" fill="white"/>
<path d="M21.2666 8.90039C23.9727 8.90039 26.1669 11.0937 26.167 13.7998V21.2666C26.167 23.9728 23.9728 26.167 21.2666 26.167H13.7998C11.0937 26.1669 8.90039 23.9727 8.90039 21.2666V13.7998C8.9005 11.0938 11.0938 8.9005 13.7998 8.90039H21.2666ZM13.7998 10.167C11.7933 10.1671 10.1671 11.7933 10.167 13.7998V21.2666C10.167 23.2732 11.7933 24.9003 13.7998 24.9004H21.2666C23.2732 24.9004 24.9004 23.2732 24.9004 21.2666V13.7998C24.9003 11.7933 23.2732 10.167 21.2666 10.167H13.7998ZM17.5332 13.7002C19.6503 13.7002 21.3661 15.4162 21.3662 17.5332C21.3662 19.6503 19.6503 21.3662 17.5332 21.3662C15.4162 21.3661 13.7002 19.6503 13.7002 17.5332C13.7003 15.4162 15.4162 13.7003 17.5332 13.7002ZM17.5332 14.9668C16.1158 14.9669 14.9669 16.1158 14.9668 17.5332C14.9668 18.9507 16.1157 20.0995 17.5332 20.0996C18.9507 20.0996 20.0996 18.9507 20.0996 17.5332C20.0995 16.1157 18.9507 14.9668 17.5332 14.9668ZM22.333 12.6338C22.6828 12.6338 22.9668 12.9169 22.9668 13.2666C22.9668 13.6164 22.6828 13.9004 22.333 13.9004C21.9834 13.9002 21.7002 13.6163 21.7002 13.2666C21.7002 12.917 21.9834 12.634 22.333 12.6338Z" fill="#1862FF" stroke="#1862FF" stroke-width="0.2"/>
</svg>
