<svg width="35" height="35" viewBox="0 0 35 35" fill="none" xmlns="http://www.w3.org/2000/svg">
<rect width="35" height="35" rx="4" fill="white"/>
<path fill-rule="evenodd" clip-rule="evenodd" d="M9.66797 13C9.66797 11.8954 10.5634 11 11.668 11H22.3346C23.4392 11 24.3346 11.8954 24.3346 13V21C24.3346 22.1046 23.4392 23 22.3346 23H11.668C10.5634 23 9.66797 22.1046 9.66797 21V13ZM11.668 12.3333C11.2998 12.3333 11.0013 12.6318 11.0013 13V13.9559L17.0013 17.5559L23.0013 13.9559V13C23.0013 12.6318 22.7028 12.3333 22.3346 12.3333H11.668ZM23.0013 15.5108L17.6873 18.6992C17.2651 18.9525 16.7376 18.9525 16.3153 18.6992L11.0013 15.5108V21C11.0013 21.3682 11.2998 21.6667 11.668 21.6667H22.3346C22.7028 21.6667 23.0013 21.3682 23.0013 21V15.5108Z" fill="url(#paint0_linear_4360_15656)"/>
<defs>
<linearGradient id="paint0_linear_4360_15656" x1="7.58176" y1="17" x2="26.77" y2="17" gradientUnits="userSpaceOnUse">
<stop stop-color="#1862FF"/>
<stop offset="1" stop-color="#5A9BF8"/>
</linearGradient>
</defs>
</svg>
