<svg width="40" height="40" viewBox="0 0 40 40" fill="none" xmlns="http://www.w3.org/2000/svg">
<rect width="40" height="40" rx="20" fill="white"/>
<path fill-rule="evenodd" clip-rule="evenodd" d="M26.0015 15C26.0015 18.3137 23.3152 21 20.0015 21C16.6878 21 14.0015 18.3137 14.0015 15C14.0015 11.6863 16.6878 9 20.0015 9C23.3152 9 26.0015 11.6863 26.0015 15ZM24.0015 15C24.0015 17.2091 22.2106 19 20.0015 19C17.7923 19 16.0015 17.2091 16.0015 15C16.0015 12.7909 17.7923 11 20.0015 11C22.2106 11 24.0015 12.7909 24.0015 15Z" fill="#1B1B20"/>
<path fill-rule="evenodd" clip-rule="evenodd" d="M20.0015 22C17.0664 22 14.9502 22.6088 13.4321 23.5217C11.908 24.4383 11.0519 25.6224 10.5792 26.6581C10.1807 27.5311 10.3621 28.4207 10.8915 29.0546C11.3962 29.6587 12.1809 30 13.0015 30H27.0015C27.8221 30 28.6068 29.6588 29.1115 29.0546C29.6409 28.4208 29.8223 27.5311 29.4238 26.6582C28.9511 25.6225 28.0951 24.4383 26.571 23.5218C25.0529 22.6088 22.9367 22 20.0015 22ZM12.3986 27.4886C12.7268 26.7697 13.3296 25.9172 14.4628 25.2357C15.6021 24.5506 17.3417 24 20.0015 24C22.6613 24 24.401 24.5506 25.5402 25.2357C26.6735 25.9172 27.2762 26.7697 27.6044 27.4886C27.6431 27.5735 27.6414 27.6245 27.6375 27.6506C27.6331 27.6803 27.6185 27.7222 27.5765 27.7724C27.4864 27.8804 27.2854 28 27.0015 28H13.0015C12.7176 28 12.5166 27.8804 12.4265 27.7724C12.3845 27.7222 12.3699 27.6803 12.3654 27.6506C12.3616 27.6245 12.3599 27.5735 12.3986 27.4886Z" fill="#1B1B20"/>
</svg>
