<svg width="34" height="34" viewBox="0 0 34 34" fill="none" xmlns="http://www.w3.org/2000/svg">
<path fill-rule="evenodd" clip-rule="evenodd" d="M22.0006 12.832C22.0006 15.5935 19.762 17.832 17.0006 17.832C14.2391 17.832 12.0006 15.5935 12.0006 12.832C12.0006 10.0706 14.2391 7.83203 17.0006 7.83203C19.762 7.83203 22.0006 10.0706 22.0006 12.832ZM20.3339 12.832C20.3339 14.673 18.8415 16.1654 17.0006 16.1654C15.1596 16.1654 13.6672 14.673 13.6672 12.832C13.6672 10.9911 15.1596 9.4987 17.0006 9.4987C18.8415 9.4987 20.3339 10.9911 20.3339 12.832Z" fill="#013B7D"/>
<path fill-rule="evenodd" clip-rule="evenodd" d="M17.0006 18.6654C14.5547 18.6654 12.7912 19.1727 11.5261 19.9335C10.256 20.6973 9.54263 21.6841 9.14868 22.5471C8.81661 23.2746 8.96775 24.016 9.40894 24.5442C9.8295 25.0476 10.4834 25.332 11.1673 25.332H22.8339C23.5178 25.332 24.1717 25.0477 24.5922 24.5442C25.0334 24.016 25.1846 23.2746 24.8525 22.5472C24.4586 21.6841 23.7452 20.6973 22.4752 19.9335C21.2101 19.1727 19.4466 18.6654 17.0006 18.6654ZM10.6649 23.2392C10.9383 22.6401 11.4407 21.9297 12.385 21.3618C13.3344 20.7908 14.7841 20.332 17.0006 20.332C19.2171 20.332 20.6668 20.7908 21.6162 21.3618C22.5606 21.9297 23.0629 22.6401 23.3363 23.2392C23.3686 23.3099 23.3672 23.3525 23.364 23.3742C23.3603 23.399 23.3481 23.4338 23.3131 23.4757C23.238 23.5657 23.0705 23.6654 22.8339 23.6654H11.1673C10.9307 23.6654 10.7632 23.5657 10.6881 23.4757C10.6531 23.4338 10.6409 23.399 10.6372 23.3742C10.634 23.3525 10.6326 23.3099 10.6649 23.2392Z" fill="#013B7D"/>
</svg>
