<svg width="22" height="21" viewBox="0 0 22 21" fill="none" xmlns="http://www.w3.org/2000/svg">
<path d="M11.11 18.3106L11 18.4251L10.879 18.3106C5.654 13.3782 1.65 9.60163 1.65 6.29428C1.65 4.00545 3.85 1.71662 6.05 1.71662C7.744 1.71662 9.28789 2.44905 9.87089 4.00545H11.9169C12.4999 2.44905 14.4034 1.71662 16.0974 1.71662C18.2974 1.71662 20.35 4.15877 20.35 6.4476C20.35 9.75496 16.346 13.3782 11.11 18.3106ZM15.95 0C14.036 0 12.199 0.926975 11 2.38038C9.801 0.926975 7.964 0 6.05 0C2.662 0 0 2.75804 0 6.29428C0 10.6087 3.74 14.145 9.405 19.4894L11 21L12.595 19.4894C18.26 14.145 22 10.6087 22 6.29428C22 2.75804 19.338 0 15.95 0Z" fill="#8D8D8F"/>
</svg>
