<svg width="16" height="16" viewBox="0 0 16 16" fill="none" xmlns="http://www.w3.org/2000/svg">
<g clip-path="url(#clip0_2057_10554)">
<path fill-rule="evenodd" clip-rule="evenodd" d="M11.5518 12.4966C10.4026 13.4371 8.93352 14.0013 7.33268 14.0013C3.65078 14.0013 0.666016 11.0165 0.666016 7.33463C0.666016 3.65274 3.65078 0.667969 7.33268 0.667969C11.0146 0.667969 13.9993 3.65274 13.9993 7.33463C13.9993 8.93549 13.4351 10.4046 12.4946 11.5538L15.1374 14.1966C15.3977 14.4569 15.3977 14.879 15.1374 15.1394C14.877 15.3997 14.4549 15.3997 14.1946 15.1394L11.5518 12.4966ZM12.666 7.33463C12.666 10.2802 10.2782 12.668 7.33268 12.668C4.38716 12.668 1.99935 10.2802 1.99935 7.33463C1.99935 4.38912 4.38716 2.0013 7.33268 2.0013C10.2782 2.0013 12.666 4.38912 12.666 7.33463Z" fill="#8D8D8F"/>
</g>
<defs>
<clipPath id="clip0_2057_10554">
<rect width="16" height="16" fill="white"/>
</clipPath>
</defs>
</svg>
