<svg width="16" height="16" viewBox="0 0 16 16" fill="none" xmlns="http://www.w3.org/2000/svg">
<path fill-rule="evenodd" clip-rule="evenodd" d="M8 0.5C4.41013 0.5 1.5 3.41013 1.5 7C1.5 9.32913 2.70187 11.2884 4.0086 12.7343C5.31943 14.1847 6.7841 15.173 7.42113 15.5697C7.77847 15.7922 8.22153 15.7922 8.57887 15.5697C9.2159 15.173 10.6806 14.1847 11.9914 12.7343C13.2981 11.2884 14.5 9.32913 14.5 7C14.5 3.41013 11.5899 0.5 8 0.5ZM8 10.5C9.65685 10.5 11 9.15685 11 7.5C11 5.84315 9.65685 4.5 8 4.5C6.34315 4.5 5 5.84315 5 7.5C5 9.15685 6.34315 10.5 8 10.5Z" fill="#49494D"/>
</svg>
