<svg width="35" height="35" viewBox="0 0 35 35" fill="none" xmlns="http://www.w3.org/2000/svg">
<rect width="35" height="35" rx="4" fill="white"/>
<path fill-rule="evenodd" clip-rule="evenodd" d="M11.225 13.6667H14.1189C14.3821 12.7257 14.7299 11.9231 15.0784 11.2696C15.2313 10.9829 15.3845 10.7247 15.5309 10.4957C13.6933 10.909 12.1422 12.0812 11.225 13.6667ZM17 10.7105C16.7852 11.0014 16.5205 11.3991 16.2549 11.8971C15.9915 12.391 15.7275 12.9828 15.5102 13.6667H18.4898C18.2725 12.9828 18.0085 12.391 17.7451 11.8971C17.4795 11.3991 17.2148 11.0014 17 10.7105ZM18.8214 15H15.1786C15.0668 15.6143 15 16.2818 15 17C15 17.7182 15.0668 18.3857 15.1786 19H18.8214C18.9332 18.3857 19 17.7182 19 17C19 16.2818 18.9332 15.6143 18.8214 15ZM20.1742 19C20.2747 18.3784 20.3333 17.711 20.3333 17C20.3333 16.289 20.2747 15.6216 20.1742 15H23.3617C23.5597 15.6307 23.6667 16.3023 23.6667 17C23.6667 17.6977 23.5597 18.3693 23.3617 19H20.1742ZM18.4898 20.3333H15.5102C15.7275 21.0172 15.9915 21.609 16.2549 22.1029C16.5205 22.6009 16.7852 22.9986 17 23.2895C17.2148 22.9986 17.4795 22.6009 17.7451 22.1029C18.0085 21.609 18.2725 21.0172 18.4898 20.3333ZM15.5309 23.5043C15.3845 23.2753 15.2313 23.0171 15.0784 22.7304C14.7299 22.0769 14.3821 21.2743 14.1189 20.3333H11.225C12.1422 21.9188 13.6933 23.091 15.5309 23.5043ZM10.6383 19H13.8258C13.7253 18.3784 13.6667 17.711 13.6667 17C13.6667 16.289 13.7253 15.6216 13.8258 15H10.6383C10.4403 15.6307 10.3333 16.3023 10.3333 17C10.3333 17.6977 10.4403 18.3693 10.6383 19ZM18.4691 23.5043C18.6155 23.2753 18.7687 23.0171 18.9216 22.7304C19.2701 22.0769 19.6179 21.2743 19.8811 20.3333H22.775C21.8578 21.9188 20.3067 23.091 18.4691 23.5043ZM22.775 13.6667H19.8811C19.6179 12.7257 19.2701 11.9231 18.9216 11.2696C18.7687 10.9829 18.6155 10.7247 18.4691 10.4957C20.3067 10.909 21.8578 12.0812 22.775 13.6667ZM9.5456 14.0908C10.7089 11.1121 13.607 9 17 9C20.393 9 23.2911 11.1121 24.4544 14.0908C24.8069 14.9933 25 15.9749 25 17C25 18.0251 24.8069 19.0067 24.4544 19.9092C23.2911 22.8879 20.393 25 17 25C13.607 25 10.7089 22.8879 9.54559 19.9092C9.19313 19.0067 9 18.0251 9 17C9 15.9749 9.19313 14.9933 9.5456 14.0908Z" fill="url(#paint0_linear_4360_3897)"/>
<defs>
<linearGradient id="paint0_linear_4360_3897" x1="6.72414" y1="17" x2="27.6567" y2="17" gradientUnits="userSpaceOnUse">
<stop stop-color="#1862FF"/>
<stop offset="1" stop-color="#5A9BF8"/>
</linearGradient>
</defs>
</svg>
