<svg width="14" height="14" viewBox="0 0 14 14" fill="none" xmlns="http://www.w3.org/2000/svg">
<g clip-path="url(#clip0_1042_22453)">
<path d="M3.91908 7.28739C3.91908 6.98166 4.16693 6.73382 4.47266 6.73382H8.67193L7.40265 5.46454C7.18647 5.24835 7.18647 4.89785 7.40265 4.68167C7.61883 4.46549 7.96934 4.46549 8.18552 4.68167L10.3998 6.89595C10.616 7.11214 10.616 7.46264 10.3998 7.67882L8.18552 9.89311C7.96934 10.1093 7.61883 10.1093 7.40265 9.89311C7.18647 9.67692 7.18647 9.32642 7.40265 9.11024L8.67193 7.84096H4.47266C4.16693 7.84096 3.91908 7.59312 3.91908 7.28739Z" fill="white"/>
<path fill-rule="evenodd" clip-rule="evenodd" d="M7.24051 13.9302C10.9093 13.9302 13.8834 10.9561 13.8834 7.28739C13.8834 3.61864 10.9093 0.644531 7.24051 0.644531C3.57176 0.644531 0.597656 3.61864 0.597656 7.28739C0.597656 10.9561 3.57176 13.9302 7.24051 13.9302ZM7.24051 12.8231C10.2978 12.8231 12.7762 10.3447 12.7762 7.28739C12.7762 4.2301 10.2978 1.75167 7.24051 1.75167C4.18322 1.75167 1.7048 4.2301 1.7048 7.28739C1.7048 10.3447 4.18322 12.8231 7.24051 12.8231Z" fill="white"/>
</g>
<defs>
<clipPath id="clip0_1042_22453">
<rect width="13.2857" height="13.2857" fill="white" transform="translate(0.597656 0.644531)"/>
</clipPath>
</defs>
</svg>
