<svg width="40" height="40" viewBox="0 0 40 40" fill="none" xmlns="http://www.w3.org/2000/svg">
<path d="M28.334 36.7905C31.5686 36.1941 34.4166 35.2366 36.1652 34.5729C37.7728 33.9628 38.8019 32.4676 38.8903 30.7951C39.0083 28.5614 39.1673 24.4359 39.1673 18.4186C39.1673 12.6656 39.022 8.64189 38.9061 6.34743C38.8044 4.33412 36.7831 3.1508 34.9984 3.77767C32.5389 4.64153 30.328 5.2239 28.7336 5.58986C28.5956 5.62152 28.4623 5.65154 28.334 5.67998V36.7905Z" fill="#B91332"/>
<path d="M25.8333 5.78417C23.1163 4.77772 20.4761 4.08776 18.4494 3.63953C17.3082 3.38714 16.3559 3.21017 15.6864 3.09594C15.4059 3.04809 15.1748 3.01121 15 2.98438V34.0088C17.6472 34.4158 20.263 35.1158 22.2842 35.7416C23.3817 36.0815 24.2957 36.3968 24.9336 36.6266C25.2523 36.7414 25.5017 36.8346 25.6702 36.8987C25.7379 36.9245 25.7926 36.9456 25.8333 36.9614V5.78417Z" fill="#B91332"/>
<path d="M4.66815 5.42848C6.41672 4.76483 9.26477 3.80739 12.4993 3.21094V34.3214C12.371 34.3499 12.2378 34.3799 12.0998 34.4116C10.5053 34.7775 8.29442 35.3599 5.83496 36.2237C4.05018 36.8506 2.02897 35.6673 1.92726 33.654C1.81134 31.3595 1.66602 27.3357 1.66602 21.5827C1.66602 15.5655 1.825 11.44 1.94302 9.20631C2.03141 7.5338 3.06052 6.03864 4.66815 5.42848Z" fill="#B91332"/>
</svg>
