<svg width="25" height="24" viewBox="0 0 25 24" fill="none" xmlns="http://www.w3.org/2000/svg">
<path d="M5.98726 16.821C5.99456 15.4788 5.99916 13.8843 5.99916 11.9992C5.99916 5.53443 5.94481 2.48703 5.91566 1.31688C5.91246 1.18739 5.90176 1.04358 5.87891 0.890625C7.80216 1.12062 9.41616 1.59408 10.9078 2.03163C11.3911 2.17342 11.8616 2.31144 12.3256 2.43618C14.7565 3.08969 17.1577 3.44151 20.729 2.2816C21.8968 1.90232 23.3106 2.49348 23.4872 3.91873C23.6221 5.00702 23.7492 6.69522 23.7492 9.19567C23.7492 12.5694 23.5179 14.4655 23.3477 15.4051C23.2175 16.1241 22.704 16.6608 22.0756 16.8976C17.8583 18.487 15.0193 18.4281 12.2844 17.9614C11.531 17.8328 10.8039 17.6787 10.0689 17.5229C8.79181 17.2523 7.49091 16.9765 5.98726 16.821Z" fill="url(#paint0_linear_2656_10428)"/>
<path d="M1.25 12C1.25 5.63105 1.31333 2.90547 1.33952 2.05006C1.34949 1.72463 1.48522 1.13091 2.09604 0.898135C2.33202 0.808205 2.6291 0.75 3 0.75C3.37089 0.75 3.66798 0.808205 3.90396 0.898135C4.51479 1.13091 4.65051 1.72463 4.66047 2.05006C4.68667 2.90547 4.75 5.63105 4.75 12C4.75 18.3689 4.68667 21.0945 4.66047 21.9499C4.6505 22.2753 4.51479 22.8691 3.90396 23.1019C3.66798 23.1918 3.37089 23.25 3 23.25C2.6291 23.25 2.33202 23.1918 2.09604 23.1019C1.48522 22.8691 1.34949 22.2753 1.33952 21.9499C1.31332 21.0945 1.25 18.3689 1.25 12Z" fill="url(#paint1_linear_2656_10428)"/>
<defs>
<linearGradient id="paint0_linear_2656_10428" x1="3.33702" y1="9.56988" x2="26.7164" y2="9.56988" gradientUnits="userSpaceOnUse">
<stop stop-color="#013B7D"/>
<stop offset="1" stop-color="#1862FF"/>
</linearGradient>
<linearGradient id="paint1_linear_2656_10428" x1="0.752155" y1="12" x2="5.33116" y2="12" gradientUnits="userSpaceOnUse">
<stop stop-color="#013B7D"/>
<stop offset="1" stop-color="#1862FF"/>
</linearGradient>
</defs>
</svg>
