<svg width="35" height="35" viewBox="0 0 35 35" fill="none" xmlns="http://www.w3.org/2000/svg">
<rect width="35" height="35" rx="4" fill="white"/>
<path d="M17.0332 9.90039C19.5192 9.90039 21.9191 10.0056 24.1807 10.2021C25.6094 10.3263 26.7739 11.4105 26.9355 12.8398C27.0871 14.1802 27.167 15.5722 27.167 17C27.167 18.4278 27.0871 19.8198 26.9355 21.1602C26.7739 22.5895 25.6094 23.6737 24.1807 23.7979C21.9191 23.9944 19.5192 24.0996 17.0332 24.0996C14.5472 24.0996 12.1473 23.9944 9.88574 23.7979C8.45706 23.6737 7.29352 22.5895 7.13184 21.1602C6.98028 19.8198 6.90039 18.4278 6.90039 17C6.90039 15.5722 6.98028 14.1802 7.13184 12.8398C7.29352 11.4105 8.45706 10.3263 9.88574 10.2021C12.1473 10.0056 14.5472 9.90039 17.0332 9.90039ZM17.0332 11.1562C14.5824 11.1563 12.2185 11.2598 9.99414 11.4531C9.13395 11.5281 8.47129 12.1731 8.37988 12.9814C8.2337 14.2743 8.15625 15.619 8.15625 17C8.15625 18.381 8.2337 19.7257 8.37988 21.0186C8.47129 21.8269 9.13395 22.4719 9.99414 22.5469C12.2185 22.7402 14.5824 22.8437 17.0332 22.8438C19.484 22.8438 21.8478 22.7392 24.0723 22.5459C24.9325 22.471 25.5961 21.827 25.6875 21.0186C25.8337 19.7257 25.9102 18.381 25.9102 17C25.9102 15.619 25.8337 14.2743 25.6875 12.9814C25.5961 12.173 24.9325 11.529 24.0723 11.4541C21.8478 11.2608 19.484 11.1563 17.0332 11.1562ZM14.9326 14.7822C14.9326 14.4207 15.3236 14.1942 15.6367 14.375L19.6484 16.6914C19.9615 16.8722 19.9615 17.3241 19.6484 17.5049L15.6367 19.8213C15.3237 20.002 14.9328 19.7764 14.9326 19.415V14.7822ZM15.9238 18.5098L18.3691 17.0977L15.9238 15.6865V18.5098Z" fill="#1862FF" stroke="#1862FF" stroke-width="0.2"/>
</svg>
